<?xml version="1.0" encoding="utf-8"?>
<svg viewBox="50.658 4.159 32.757 26.652" fill="none" xmlns="http://www.w3.org/2000/svg">
  <path style="stroke: rgb(0, 0, 0); fill: rgb(255, 255, 255);" d="M 59.075 18.47 C 59.075 18.47 59.004 18.47 59.111 18.47 C 59.219 18.47 75.085 17.866 75.085 17.866 L 75.555 20.925 L 74.218 22.302 C 74.218 22.302 59.148 21.63 59.004 21.63 C 58.859 21.63 59.329 18.335 59.075 18.47 Z"/>
  <path d="M 73.497 14.517 L 75.691 10.717 C 75.822 10.384 75.544 10.033 75.19 10.085 C 75.186 10.086 75.181 10.087 75.177 10.088 C 75.067 10.107 74.969 10.166 74.9 10.253 L 72.678 14.112 C 69.088 12.501 64.98 12.501 61.391 14.112 L 59.169 10.262 C 58.943 9.985 58.502 10.056 58.375 10.39 C 58.334 10.498 58.335 10.618 58.378 10.726 L 60.572 14.518 C 56.722 16.615 54.194 20.518 53.855 24.89 L 80.218 24.89 C 79.876 20.518 77.348 16.615 73.497 14.518 Z M 60.963 21.134 C 60.116 21.131 59.59 20.212 60.015 19.48 C 60.062 19.4 60.12 19.325 60.186 19.259 C 60.784 18.661 61.804 18.936 62.022 19.752 C 62.208 20.449 61.684 21.133 60.963 21.134 Z M 73.1 21.134 C 72.254 21.135 71.724 20.221 72.145 19.488 C 72.341 19.147 72.703 18.937 73.096 18.937 C 73.941 18.935 74.471 19.85 74.05 20.583 C 73.854 20.923 73.492 21.133 73.1 21.134 Z" fill="#00DE7A"/>
</svg>