<?xml version="1.0" encoding="UTF-8" standalone="no"?>
<!-- Created with Inkscape (http://www.inkscape.org/) -->

<svg
   version="1.1"
   id="svg9"
   width="682.66669"
   height="682.66669"
   viewBox="0 0 682.66669 682.66669"
   xmlns="http://www.w3.org/2000/svg"
   xmlns:svg="http://www.w3.org/2000/svg">
  <defs
     id="defs13" />
  <g
     id="g15">
    <path
       style="fill:#000000;stroke-width:1.33333"
       d="M 290.66668,677.80528 C 225.27034,673.1421 178.67497,662.50961 139.33334,643.27288 92.377423,620.31299 63.49803,591.42147 40.768584,544.66669 16.211137,494.15167 5.3333335,431.93769 5.3333335,342.00001 5.3333335,228.06885 23.478418,154.42633 65.189476,99.071573 92.991594,62.175378 139.88651,34.164017 198.63838,19.359614 264.8359,2.6790425 378.99,0.38034764 459.33335,14.110059 c 46.93627,8.020844 91.3835,26.304892 124.37158,51.162165 44.71434,33.693267 75.38613,94.037566 86.77749,170.727786 5.14463,34.63528 6.18427,52.45492 6.18427,106 0,90.58402 -7.60652,139.44342 -29.8904,191.9967 -15.18632,35.81474 -36.94263,65.0425 -63.07136,84.73108 -41.6361,31.37375 -91.13781,48.51817 -163.70492,56.69755 -18.50257,2.08551 -109.88089,3.76702 -129.33333,2.37994 z m 94.18543,-1.86119 c 42.53662,-2.48147 70.76887,-6.40192 99.81457,-13.86072 52.61681,-13.51175 98.15627,-39.06587 123.76807,-69.45148 24.1711,-28.67636 42.00201,-65.51466 52.90397,-109.29854 10.20749,-40.99475 13.80352,-77.8142 13.80352,-141.33334 0,-63.51913 -3.59603,-100.33859 -13.80352,-141.33334 C 647.86538,146.55583 622.25529,100.32513 591.29855,74.231935 562.65002,50.0843 526.02746,32.351108 482.00002,21.307939 441.72391,11.2057 404.18151,7.5279788 341.33334,7.5279788 278.48518,7.5279788 240.94278,11.2057 200.66667,21.307939 143.18504,35.725749 96.615887,62.532134 70.134241,96.445711 47.163522,125.86304 31.767657,158.73938 21.327967,200.66667 11.135246,241.6021 7.5366421,278.4245 7.5156483,342.00001 c -0.020931,63.38314 3.5815337,100.24505 13.8123187,141.33334 10.901971,43.78388 28.732876,80.62218 52.903968,109.29854 25.597266,30.36837 70.982145,55.84495 123.768075,69.47659 48.12907,12.42902 119.88511,17.74226 186.8521,13.83561 z M 328.35865,543.99343 c -35.42293,-4.94414 -65.90864,-23.96496 -85.60478,-53.41101 -13.06164,-19.52735 -20.6697,-43.8932 -19.8174,-63.46778 l 0.39687,-9.11463 28.57116,-0.36054 c 30.79734,-0.38863 31.22651,-0.29443 29.85694,6.55338 -1.1208,5.604 3.13954,22.30702 7.74157,30.35143 8.31984,14.5432 21.43987,24.46387 38.08807,28.80018 25.88763,6.74288 54.54723,-5.82294 67.38059,-29.54304 5.07421,-9.37876 8.11805,-23.36622 7.06544,-32.46807 -1.92023,-16.60414 -6.15598,-26.45408 -15.97304,-37.14428 -11.94615,-13.00864 -24.32768,-18.19894 -48.02058,-20.13006 -20.09705,-1.63802 -30.55673,-4.31802 -46.71015,-11.96813 -54.64484,-25.87927 -81.63669,-88.65798 -63.09876,-146.75754 12.19625,-38.2242 45.03378,-69.4122 84.4321,-80.19086 8.82354,-2.41397 14.2377,-2.92036 31.33333,-2.93068 18.71682,-0.0113 21.79108,0.33039 32.58448,3.62148 30.54568,9.3139 55.34578,28.35194 71.22167,54.67406 8.65855,14.3558 15.45218,35.43749 16.3788,50.826 l 0.48172,8 -30.7602,0.35732 -30.7602,0.35732 -1.54553,-8.35732 c -4.82322,-26.08099 -25.25047,-46.23561 -50.9567,-50.2766 -31.89275,-5.01352 -62.66387,17.95329 -68.32369,50.99512 -3.77767,22.0538 7.57988,47.12064 26.9947,59.57911 9.88602,6.34383 20.74208,9.24211 37.11065,9.90755 32.85285,1.33558 60.1219,12.96313 82.7513,35.28522 47.62678,46.98001 47.88574,123.4762 0.58008,171.35233 -15.87154,16.06296 -37.9718,28.50646 -59.27333,33.37372 -11.07024,2.52947 -31.64819,3.54863 -42.12511,2.08632 z m 44.30803,-5.27276 c 23.48068,-5.93091 48.31456,-21.92865 63.28532,-40.76777 9.58732,-12.06464 19.03943,-30.74027 22.92024,-45.28622 4.16867,-15.62488 4.26656,-43.84609 0.20351,-58.66667 -7.70717,-28.11302 -25.01458,-53.02951 -47.65542,-68.60681 -15.25298,-10.49434 -38.50741,-18.93583 -57.53392,-20.88515 l -8.55306,-0.87629 v 29.51746 29.51746 h 3.758 c 5.5654,0 17.42481,3.75525 24.15786,7.64953 40.31692,23.31856 41.9341,80.51701 3.03319,107.28153 -10.26065,7.05952 -19.33772,9.60182 -34.28239,9.60182 -19.52668,0 -32.53429,-5.53449 -46.11579,-19.62138 -9.99325,-10.36512 -18.87649,-34.50413 -16.37113,-44.4863 0.51856,-2.06609 0.17512,-3.14175 -1.0352,-3.24223 -4.88525,-0.40556 -52.55658,0.4818 -53.07695,0.98799 -1.54819,1.50597 0.36592,20.52944 3.18308,31.63499 5.47533,21.58443 16.84938,40.87841 33.60066,56.99739 18.10996,17.42638 38.82836,27.58541 65.14866,31.94492 10.21699,1.69227 33.42843,0.31276 45.33334,-2.69427 z M 341.33334,332.85321 v -28.48012 l -7,-0.73409 c -22.94097,-2.40582 -44.15877,-19.70186 -51.89818,-42.30566 -3.9871,-11.6447 -3.94719,-29.24624 0.092,-40.55903 9.37992,-26.27134 31.74713,-42.10764 59.47285,-42.10764 30.70731,0 55.79571,20.64915 61.96422,51 l 1.55818,7.66667 h 28.61806 28.61807 l -0.84751,-7 c -4.88325,-40.33389 -29.97878,-76.48597 -65.24435,-93.98963 -45.45811,-22.5626 -100.17391,-13.87255 -136.16,21.62515 -22.79806,22.48864 -35.27657,52.11497 -35.38554,84.01197 -0.10933,32.02061 10.83169,59.77739 32.7736,83.14434 19.16123,20.40567 51.59879,35.72603 76.4386,36.10218 l 7,0.106 z"
       id="path2777" />
    <path
       style="fill:#6692ec;fill-opacity:1;stroke:#000000;stroke-width:0"
       d="M 303.18867,675.68536 C 213.67105,671.42444 149.28736,652.57658 101.26776,616.57449 64.009155,588.64031 35.363404,539.58686 20.985514,479.09786 13.528465,447.72542 10.618138,423.56428 8.7972896,377.91287 7.2528231,339.19077 8.7381822,282.56483 11.999374,255.84067 23.374336,162.62741 57.0861,96.130693 111.02877,60.504403 152.05914,33.406004 201.15738,17.668963 266.09843,10.80124 285.65647,8.7329146 370.64304,7.923577 396.53543,9.5590722 473.18679,14.40076 528.07544,30.841769 575.48712,63.16116 c 56.39375,38.44225 90.56915,115.44962 97.39072,219.4503 1.96188,29.91042 0.83109,120.34487 -1.77781,142.18059 -10.67253,89.32603 -40.80109,154.32651 -88.56965,191.08359 -39.60855,30.47808 -96.18066,49.98305 -164.9791,56.88157 -38.46249,3.8567 -75.13036,4.79555 -114.36261,2.92815 z m 55.22963,-131.4736 c 25.92322,-2.95974 49.39735,-14.25602 69.57454,-33.48086 15.68372,-14.94346 26.40546,-32.77356 33.17255,-55.16556 3.01465,-9.97536 3.28835,-12.58355 3.35587,-31.98008 0.0649,-18.6583 -0.25939,-22.31409 -2.78365,-31.37669 -12.97761,-46.59207 -49.59577,-80.39709 -95.99277,-88.61826 -5.35708,-0.94923 -14.82406,-2.08015 -21.03775,-2.51317 -6.21369,-0.43303 -14.31532,-1.57333 -18.00364,-2.53401 -22.28424,-5.80431 -40.06417,-25.84798 -43.73173,-49.29963 -4.16886,-26.65716 13.91489,-55.47453 40.5659,-64.64383 21.01352,-7.2297 44.09077,-1.44857 60.34346,15.1168 8.63622,8.80235 14.03305,18.88559 16.82512,31.43541 l 2.00241,9.00045 h 31.25555 31.25555 v -4.06571 c 0,-12.76231 -6.10179,-34.77495 -13.92629,-50.2401 -14.83452,-29.32045 -45.48515,-53.21615 -79.19318,-61.74018 -8.59648,-2.17387 -12.50957,-2.41253 -32.24833,-1.96681 -20.64477,0.46617 -23.24398,0.77633 -32.08441,3.82856 -72.76972,25.12433 -106.56095,104.58036 -72.88179,171.37282 7.1557,14.19114 11.03279,19.4059 23.87654,32.11429 18.66059,18.46396 40.48717,29.56933 65.30025,33.2248 6.61655,0.97475 17.50369,2.57966 24.19367,3.56647 16.07971,2.37183 25.60285,6.90442 35.38446,16.84141 8.71191,8.8503 13.26448,16.74482 15.7589,27.32717 5.03929,21.37882 -0.9539,42.53769 -16.15578,57.03784 -20.02453,19.10016 -50.0734,22.21243 -72.96039,7.55677 -7.60797,-4.87175 -17.73588,-15.79348 -21.1111,-22.76579 -3.61759,-7.47292 -7.62109,-23.82502 -6.83724,-27.92628 1.26422,-6.61452 0.57179,-6.76631 -30.8659,-6.76631 h -28.81533 v 11.91322 c 0,41.44655 27.0697,83.07632 66.97716,103.00232 22.2388,11.10397 43.14171,14.67298 68.78735,11.74494 z"
       id="path10558" />
    <path
       style="fill:#ffffff;fill-opacity:1;stroke:#000000;stroke-width:0"
       d="m 321.40111,539.47377 c -12.86228,-2.71265 -21.8469,-5.99233 -33.36798,-12.18039 -35.67615,-19.16194 -60.2196,-57.5981 -61.98462,-97.07075 l -0.37773,-8.44756 17.49854,-0.9132 c 9.62419,-0.50226 21.50933,-0.77379 26.41141,-0.6034 l 8.91288,0.3098 0.30122,7.24077 c 0.60852,14.62772 9.51947,33.81749 20.25026,43.60907 12.28441,11.20921 25.2975,16.12732 42.67221,16.12732 19.33204,0 31.72715,-4.90248 44.37621,-17.55154 24.77229,-24.77229 25.07498,-65.43141 0.66881,-89.83759 -9.63833,-9.63833 -27.2422,-18.11762 -37.61402,-18.11762 h -3.40136 v -29.00466 -29.00466 l 6.33568,0.7575 c 32.54229,3.89075 62.41241,19.10099 80.69363,41.09021 17.65898,21.24078 26.95471,43.91414 28.3958,69.26062 1.29737,22.81873 -2.31802,40.6462 -12.23684,60.33978 -12.81434,25.44255 -29.66429,41.97565 -55.51984,54.47584 -13.60211,6.57611 -21.6974,8.88138 -37.41067,10.65333 -14.94765,1.68561 -22.39571,1.44177 -34.60359,-1.13287 z"
       id="path15509" />
    <path
       style="fill:#1d56b5;fill-opacity:1;stroke:#000000;stroke-width:0"
       d="m 323.01563,359.47898 c -22.32406,-3.71194 -49.89232,-18.78848 -65.52062,-35.83192 -8.28673,-9.0371 -18.42726,-24.68375 -22.67781,-34.99142 -6.76665,-16.4093 -7.92599,-23.14485 -7.93309,-46.08972 -0.006,-18.4317 0.3446,-22.33125 2.75308,-30.64662 3.37765,-11.6615 9.36067,-24.8166 15.53126,-34.14917 6.20968,-9.39171 21.06436,-24.82825 29.98095,-31.15531 46.92532,-33.29741 110.59494,-28.214 150.88806,12.04697 18.66635,18.65146 32.27104,46.02755 35.04109,70.51161 l 0.83252,7.35854 H 434.02189 406.1327 l -0.70492,-3.31869 c -5.92118,-27.87568 -22.21844,-46.37448 -46.56413,-52.85432 -8.51633,-2.2667 -25.29803,-2.22023 -34.18548,0.0947 -10.97464,2.85853 -20.47369,8.56578 -28.45204,17.09466 -12.05433,12.88612 -16.85295,25.17895 -16.85295,43.17296 0,19.36923 5.10913,32.06606 18.25364,45.36254 8.14613,8.24034 23.00956,16.16237 32.61419,17.38299 11.77064,1.49589 10.67875,-1.53989 10.67875,29.69017 v 27.67498 l -5.73228,-0.14108 c -3.15275,-0.0776 -8.63008,-0.62291 -12.17185,-1.21183 z"
       id="path16794" />
  </g>
</svg>
